<svg width="36" height="15" viewBox="0 0 36 15" fill="none" xmlns="http://www.w3.org/2000/svg">
<path d="M34.6413 2.10535L18.6835 14.4314C18.5353 14.546 18.3593 14.6369 18.1655 14.6989C17.9718 14.7609 17.7642 14.7929 17.5545 14.7929C17.3447 14.7929 17.1371 14.7609 16.9434 14.6989C16.7496 14.6369 16.5736 14.546 16.4254 14.4314L0.467653 2.10535C0.16822 1.87407 0 1.56037 0 1.23329C0 0.906199 0.16822 0.592507 0.467653 0.361221C0.767086 0.129935 1.1732 0 1.59667 0C2.02013 0 2.42625 0.129935 2.72568 0.361221L17.5545 11.8167L32.3832 0.361221C32.5315 0.246699 32.7075 0.155856 32.9012 0.0938778C33.0949 0.0318993 33.3026 0 33.5122 0C33.7219 0 33.9295 0.0318993 34.1233 0.0938778C34.317 0.155856 34.493 0.246699 34.6413 0.361221C34.7895 0.475742 34.9071 0.611699 34.9874 0.761328C35.0676 0.910957 35.1089 1.07133 35.1089 1.23329C35.1089 1.39524 35.0676 1.55562 34.9874 1.70525C34.9071 1.85487 34.7895 1.99083 34.6413 2.10535Z" fill="white"/>
</svg>
