<svg width="704" height="341" viewBox="0 0 704 341" fill="none" xmlns="http://www.w3.org/2000/svg">
<g clip-path="url(#clip0_8509_3637)">
<path d="M46.8913 201.439C51.4586 182.547 62.7247 168.53 62.7247 168.53C62.7247 168.53 47.1958 172.796 35.9297 175.234C33.9323 175.666 32.0901 176.099 30.3819 176.541C30.4215 170.105 30.4489 165.084 30.4489 162.436C30.4489 150.247 30.7534 67.9732 30.7534 67.9732C30.7534 67.9732 31.0579 67.3638 31.9713 66.4497C40.497 69.4968 48.4138 71.3251 52.0676 85.0374C54.808 69.1921 59.3754 64.0119 72.1639 51.8232C66.0741 51.8232 56.026 50.6044 49.6317 43.2911C39.5836 57.6129 28.3175 70.1063 11.2661 81.6855C10.986 85.0344 10.7089 161.988 10.6632 187.09C7.21335 190.991 4.38464 196.256 0 206.01C3.86701 201.446 7.37777 197.886 10.651 195.168C10.5932 211.474 10.0481 238.92 10.0481 255.679C10.0481 273.353 9.43916 318.146 9.43916 341C15.2245 335.515 26.1861 323.936 42.0195 311.747C32.5803 296.816 31.0579 275.486 30.4489 256.289C30.0409 243.466 30.1779 211.343 30.3149 187.788C37.8663 188.203 41.4318 189.933 46.8913 201.439Z" fill="white"/>
<path d="M121.796 255.07C117.533 249.89 117.533 242.881 117.533 234.654C117.533 226.426 117.837 203.572 117.837 194.431C117.837 185.289 117.228 176.148 121.187 169.139C107.18 168.835 101.395 166.397 96.2185 160.303C94.0871 164.264 88.9108 171.272 82.212 179.195C75.5133 187.118 70.337 194.736 58.4619 202.658C58.4619 202.658 57.8529 257.203 57.8529 271.22C57.8529 285.237 57.8529 286.456 52.9811 297.73C69.119 293.464 78.5582 303.824 80.3851 315.404C82.5165 312.661 84.3435 302.606 89.5198 291.94C94.6961 281.275 97.132 277.619 103.831 281.275C110.53 284.932 112.661 301.082 112.661 301.082C112.661 301.082 115.097 292.245 120.882 279.447C126.667 266.649 132.453 262.383 132.453 262.383C132.453 262.383 126.058 260.25 121.796 255.07ZM97.741 277.009L96.2185 278.228C96.2185 278.228 93.7826 275.79 87.6928 273.353C81.6031 270.915 76.7312 271.524 76.7312 271.524L77.0357 187.422C77.0357 187.422 77.6447 187.118 78.5582 185.899C86.28 196.887 98.4383 196.506 98.4383 196.506L97.741 277.009Z" fill="white"/>
<path d="M227.289 2.01115C218.224 -2.1848 208.417 -0.600275 193.131 14.3979C190.692 16.793 188.527 19.4501 186.603 22.281C177.745 24.2037 167.064 30.4748 158.094 41.7554C144.471 58.8866 140.235 82.0147 139.261 95.1907C138.29 108.367 137.845 141.109 137.845 155.677C137.845 170.246 137.492 298.254 137.492 298.254C137.492 298.254 139.876 287.644 145.36 277.25C151.961 266.11 158.712 260.101 158.712 260.101C158.712 260.101 158.52 152.051 158.8 115.497C159.053 82.6424 162.156 45.3755 182.231 29.78C174.877 44.4918 172.527 61.62 171.826 71.9042C170.855 86.1497 170.41 121.54 170.41 137.287C170.41 153.035 170.057 291.41 170.057 291.41C170.057 291.41 171.915 279.289 178.808 269.026C185.705 258.763 191.274 254.25 191.274 254.25C191.274 254.25 191.362 133.372 191.362 93.856C191.362 54.3403 196.06 5.43922 227.289 2.01115Z" fill="white"/>
<path d="M249.501 245.828C239.651 247.939 232.517 239.087 232.517 225.107V202.908C243.022 181.843 248.588 172.412 254.803 163.636C261.3 154.458 273.988 141.684 273.988 141.684C260.92 138.625 255.186 135.413 251.213 129.98C240.589 144.668 227.673 157.518 213.608 164.017V217.062C213.608 240.398 213.425 249.146 206.992 254.981C219.655 255.786 233.123 263.331 235.735 279.222C240.458 262.727 244.581 257.998 252.72 249.954C260.862 241.906 269.503 234.364 270.709 220.484C263.773 235.671 259.352 243.719 249.501 245.831V245.828ZM232.514 152.743L234.253 151.46C234.253 151.46 242.054 160.86 251.66 164.343C244.036 176.55 237.148 189.671 232.514 199.584V152.743Z" fill="white"/>
<path d="M329.609 125.842C321.041 136.434 313.484 141.818 300.47 147.203C300.497 140.435 300.512 135.608 300.512 133.984C293.342 131.979 293.062 129.511 290.035 126.714C286.542 134.356 278.209 143.257 270.246 150.107C276.616 152.112 281.594 157.006 281.594 157.006V204.133C281.594 215.261 281.287 236.141 280.599 269.989C285.815 253.333 300.037 242.345 300.037 242.345C300.037 242.345 300.333 180.444 300.461 149.954C310 148.007 321.023 155.458 321.023 155.458C321.023 155.458 320.944 173.884 320.944 185.018C320.944 196.153 321.05 230.089 319.981 267.664C329.716 249.036 339.664 241.757 339.664 241.757C339.664 241.757 340.248 177.617 339.877 159.97C339.505 142.324 345.412 135.279 345.412 135.279C345.412 135.279 336.823 132.439 329.612 125.839L329.609 125.842Z" fill="white"/>
<path d="M456.45 214.771C456.45 203.963 455.896 166.741 455.896 158.429C455.896 150.116 457.242 145.125 457.242 145.125C457.242 145.125 439.993 139.265 434.533 128.655C428.112 137.077 420.856 143.485 416.17 147.139C415.956 125.19 415.78 105.31 415.78 96.504C415.78 74.4913 418.076 47.9626 426.224 34.1832C434.375 20.4039 441.941 16.8905 457.702 17.7773C444.14 9.19642 429.004 13.6605 417.454 27.059C405.905 40.4543 397.806 57.0127 397.224 86.3447C396.646 115.677 397.224 131.211 397.224 150.573C397.224 169.935 398.372 214.238 398.202 228.118C398.031 242 398.031 241.233 394.712 245.916C402.37 246.684 419.89 254.323 421.79 280.337C426.419 261.926 431.759 252.184 442.206 242.208C452.65 232.231 459.297 228.191 459.297 228.191C459.297 228.191 456.447 225.576 456.447 214.768L456.45 214.771ZM436.747 244.505C436.747 244.505 427.646 232.073 416.885 229.458C416.885 217.815 416.498 181.231 416.182 148.693L417.598 147.498C417.598 147.498 422.503 159.535 437.301 164.127C437.301 178.619 437.934 242.442 437.934 242.442L436.747 244.502V244.505Z" fill="white"/>
<path d="M530.794 153.111C527.847 151.515 522.811 147.459 517.038 140.328C512.385 145.399 503.658 152.788 492.654 158.587C492.764 150.823 492.873 145.368 492.98 143.86C487.758 142.891 486.117 139.155 482.238 134.304C480.447 140.353 474.33 146.996 462.467 155.357C469.409 157.438 473.767 164.413 473.767 164.413C473.767 164.413 472.911 254.875 473.136 281.303C479.181 263.087 491.786 257.861 491.786 257.861C491.786 257.861 492.191 193.62 492.618 161.409C501.39 159.224 503.969 162.003 506.6 167.796C509.365 173.881 510.037 184.327 510.037 184.327C510.037 184.327 510.345 181.807 511.45 174.862C512.556 167.918 517.467 160.543 530.794 153.108V153.111Z" fill="white"/>
<path d="M617.443 287.912C610.196 287.991 598.488 279.225 598.488 258.345C598.488 252.135 598.665 242.375 598.912 231.731C611.767 210.8 616.213 202.671 623.654 196.183C631.699 189.168 641.175 181.042 641.175 181.042C641.175 181.042 625.247 171.638 619.754 158.09C605.26 173.311 594.987 179.61 581.528 181.599C581.528 197.277 580.049 239.209 579.872 252.595C568.146 271.515 560.007 270.446 554.161 265.924C547.846 261.039 543.251 255.103 543.251 236.333C543.251 231.683 543.312 224.775 543.403 217.014C546.068 212.165 551.585 202.308 557.102 193.566C564.775 181.41 573.563 173.731 585.551 163.974C575.241 158.456 568.53 152.298 563.335 143.5C549.989 157.335 540.684 164.971 525.697 167.732C525.697 167.732 524.976 213.729 524.881 235.851C524.787 257.974 518.088 261.326 518.088 261.326C518.088 261.326 524.403 262.761 535.219 274.636C546.031 286.51 546.128 297.907 546.128 297.907C546.128 297.907 549.956 285.554 554.453 281.053C558.951 276.552 569.669 271.189 575.506 262.953C577.336 260.372 578.761 258.129 579.857 256.264C579.799 265.756 579.068 273.283 573.012 276.994C582.25 281.937 599.691 296.679 600.644 316.921C605.422 302.097 607.334 300.424 617.129 293.808C626.925 287.193 634.887 282.811 635.526 269.66C629.714 282.171 624.696 287.83 617.449 287.909L617.443 287.912ZM600.483 176.495L602.316 175.779C602.316 175.779 606.058 186.697 618.323 197.298C610.726 207.896 602.794 221.993 598.982 228.992C599.572 204.456 600.483 176.495 600.483 176.495ZM544.235 161.972L546.393 161.092C546.393 161.092 552.386 173.247 563.174 181.325C553.646 193.2 546.829 206.114 543.449 213.141C543.735 190.137 544.235 161.969 544.235 161.969V161.972Z" fill="white"/>
<path d="M699.567 214.478C699.567 203.539 701.293 200.827 701.293 200.827C701.293 200.827 686.34 195.4 673.484 169.935C660.629 144.47 654.07 113.489 660.105 89.334C666.14 65.1791 673.834 54.6785 684.939 50.0407C696.044 45.4029 703.997 50.1352 703.997 50.1352C692.426 38.2268 675.287 35.1675 658.911 55.7054C642.536 76.2434 640.136 98.0916 641.717 130.648C643.3 163.204 659.782 196.741 680.634 219.028V307.298L679.105 308.828C679.105 308.828 669.928 294.068 660.708 287.284C660.708 261.81 660.47 193.742 660.47 193.742C660.47 193.742 652.085 200.842 641.303 200.208C641.303 229.391 641.793 271.589 641.793 281.998C641.793 292.407 639.665 295.643 637.694 298.324C648.65 302.898 662.285 315.44 665.044 340.836C668.825 329.713 670.795 320.959 681.751 310.943C692.706 300.927 702.243 297.614 702.243 297.614C702.243 297.614 699.564 294.381 699.564 287.361V214.472L699.567 214.478Z" fill="white"/>
</g>
<defs>
<clipPath id="clip0_8509_3637">
<rect width="704" height="341" fill="white"/>
</clipPath>
</defs>
</svg>
